<svg version="1.1" id="Layer_1" xmlns="http://www.w3.org/2000/svg" xmlns:xlink="http://www.w3.org/1999/xlink" x="0px" y="0px"
	 width="100%" viewBox="0 0 1024 1024" enable-background="new 0 0 1024 1024" xml:space="preserve">
<path fill="#000000" opacity="1.000000" stroke="none" 
	d="
M399.021484,442.011658 
	C400.053406,442.527679 401.413361,442.784058 402.061920,443.603455 
	C405.304382,447.700165 408.979614,448.149017 413.357941,445.554565 
	C415.545959,444.257965 417.115234,445.360748 418.343872,447.280396 
	C419.870544,449.665741 421.358063,452.087494 423.052460,454.351349 
	C425.291351,457.342712 424.539551,459.306366 421.548798,461.269623 
	C419.380646,462.692902 415.090607,463.699860 416.702118,467.122314 
	C418.854919,471.694244 416.557495,479.318817 424.954681,480.111725 
	C432.214508,480.797272 429.765381,486.589294 430.334595,490.855713 
	C430.926941,495.295319 428.510864,496.839081 424.744537,497.279663 
	C421.152679,497.699829 419.009827,499.448486 418.542114,503.203186 
	C418.318024,505.002319 417.851593,506.842224 417.110016,508.490417 
	C415.763702,511.482513 416.676575,513.393005 419.182190,515.287842 
	C424.856598,519.579102 424.782318,519.678894 421.165680,525.863403 
	C420.576996,526.870056 419.823730,527.811218 419.410461,528.884277 
	C417.953857,532.666504 415.484894,533.011108 412.323792,531.099487 
	C409.319794,529.282837 406.818756,529.238953 404.784576,532.614990 
	C404.033661,533.861267 402.859955,534.991821 401.627472,535.783447 
	C397.545044,538.405396 396.417145,541.470642 399.381104,545.705750 
	C401.573975,548.839172 400.870636,551.293091 397.182617,552.731384 
	C396.413971,553.031189 395.717773,553.519958 394.994965,553.933472 
	C387.563202,558.185730 387.545959,558.200745 382.125671,551.549255 
	C381.109772,550.302551 380.173431,549.386475 378.358521,549.957092 
	C375.185272,550.954712 371.944122,551.735229 368.764954,552.715515 
	C365.311768,553.780151 365.944366,557.112366 365.705078,559.473450 
	C365.308167,563.389893 363.556030,564.730652 359.887207,564.324158 
	C358.734711,564.196472 357.533142,564.149353 356.393982,564.324707 
	C351.062225,565.145447 348.301056,563.225586 348.201416,557.527222 
	C348.066864,549.830627 340.983124,551.637024 336.753632,549.694275 
	C333.099152,548.015686 331.668152,551.361938 330.311523,553.650635 
	C328.021332,557.514526 325.542938,558.478149 322.009949,555.287476 
	C321.402405,554.738770 320.599060,554.408508 319.891846,553.968201 
	C312.126984,549.133118 313.057678,549.493469 316.483002,542.896301 
	C317.916473,540.135376 317.863281,537.873291 315.196320,535.933838 
	C314.396149,535.351990 313.612305,534.650452 313.060364,533.840576 
	C309.853271,529.134705 306.150452,527.618530 301.142334,531.422058 
	C298.697876,533.278564 296.836273,532.216064 295.642120,529.577454 
	C295.094391,528.367126 294.375580,527.233521 293.722504,526.071777 
	C289.915039,519.298889 289.927399,519.316223 295.989746,514.374390 
	C297.077423,513.487732 298.859314,512.803955 298.052002,510.876190 
	C297.342285,509.181458 295.667328,509.283203 294.169220,509.277832 
	C289.836792,509.262299 285.504242,509.294434 281.171722,509.289154 
	C274.765656,509.281372 274.655701,509.229828 274.725159,502.962921 
	C275.008698,477.372894 280.215851,452.794128 289.740997,429.059784 
	C300.239563,402.899750 315.342651,379.789246 334.865112,359.481506 
	C338.306549,355.901672 342.128357,352.696075 346.709717,351.479462 
	C353.907623,349.567993 359.463959,345.243408 365.124054,340.981201 
	C393.785370,319.398499 425.681671,304.938232 460.680389,297.213806 
	C462.684601,296.771454 464.322876,296.521576 465.146179,293.647034 
	C465.904053,291.000854 469.043518,289.385193 472.167847,288.644592 
	C479.499969,286.906525 486.997314,286.285339 494.442169,285.899902 
	C528.364441,284.143463 561.579956,288.099243 593.775757,299.297424 
	C602.432007,302.308197 610.923218,305.769623 619.092957,309.932281 
	C621.499207,311.158295 623.349060,311.331177 626.027222,310.278503 
	C645.588745,302.589661 666.173523,310.519745 674.668396,328.673553 
	C676.921570,333.488800 678.204041,338.549835 677.001099,343.698944 
	C676.136841,347.397888 677.330200,349.660858 679.826294,351.993896 
	C688.984985,360.554443 696.783752,370.323578 704.465210,380.181976 
	C705.761475,381.845642 707.417358,383.364166 707.743408,385.907562 
	C698.820801,385.907562 689.993103,385.909027 681.165466,385.901825 
	C680.835266,385.901550 680.491638,385.733063 680.177002,385.783905 
	C665.556396,388.146606 655.983459,380.038330 646.771790,370.347748 
	C639.758850,362.970184 631.199463,357.333069 622.456787,352.095856 
	C621.523865,351.537048 620.504517,351.122559 619.349731,350.950562 
	C632.072937,360.489136 645.300598,369.336029 655.540894,381.398407 
	C654.458618,384.014496 652.271729,382.538544 650.603394,383.854340 
	C660.167419,385.499878 669.435791,386.186005 678.716187,386.683563 
	C692.509094,387.423096 706.327698,387.788452 720.097412,388.819672 
	C729.665649,389.536255 736.174561,395.750397 741.305481,403.168427 
	C751.129395,417.371613 752.435364,432.566986 744.619690,448.019653 
	C742.241333,452.721771 741.985229,456.816376 743.298950,461.737366 
	C747.129028,476.084808 749.078674,490.738251 749.624756,505.594788 
	C749.737915,508.672028 748.499573,509.332520 745.874268,509.322815 
	C732.876831,509.274689 719.878235,509.213562 706.882019,509.346283 
	C703.000916,509.385895 702.782471,507.190094 702.605042,504.229584 
	C700.798462,474.092590 692.355347,446.019135 676.459045,420.239990 
	C673.478455,415.406464 670.062012,412.301056 663.881226,411.909088 
	C657.454651,411.501495 651.075317,409.897430 644.876831,407.887329 
	C622.708862,400.698517 609.808228,381.774658 611.138916,358.366821 
	C611.360657,354.466736 607.403564,352.332153 603.423218,354.466522 
	C595.886108,358.508148 588.038879,361.610382 579.629211,363.256622 
	C567.565369,365.618195 555.744019,364.237183 544.138794,360.708252 
	C540.351685,359.556671 537.958801,360.031219 535.189270,363.281525 
	C518.021851,383.429169 496.123871,393.161926 469.551636,392.224060 
	C465.508698,392.081360 461.507874,390.207306 457.106506,391.710297 
	C457.946136,393.802826 458.787415,395.359589 461.105499,393.904022 
	C462.832520,392.819611 464.443512,392.222900 465.962433,394.054565 
	C467.487762,395.893890 467.700562,397.996368 466.675140,400.130524 
	C465.468048,402.642731 463.596527,404.421844 460.795959,405.133636 
	C452.529358,407.234833 444.435028,409.745697 437.640045,415.229980 
	C435.924744,416.614410 433.869873,416.286041 431.889221,416.376740 
	C429.245850,416.497833 426.386780,415.615509 424.000000,416.962891 
	C417.241150,420.778259 410.575073,424.474182 403.000305,426.820160 
	C397.999756,428.368927 398.123291,434.611511 396.748474,439.537598 
	C392.428162,437.338776 395.407379,434.424561 396.206604,431.956146 
	C397.457123,428.093781 394.938599,426.455872 392.674286,424.581940 
	C390.599365,422.864716 388.195038,422.722473 386.452332,424.830414 
	C383.613434,428.264374 380.925049,431.861420 378.558228,435.631348 
	C377.285828,437.658051 378.281769,439.744141 380.042786,441.398987 
	C384.978058,446.036682 389.875244,450.715302 394.752136,455.414398 
	C395.810913,456.434570 396.575775,457.907928 398.444397,457.128387 
	C400.078369,456.446747 401.113586,455.418823 401.408691,453.510223 
	C402.053040,449.342010 400.710938,445.657227 399.021484,442.011658 
M704.866333,463.671204 
	C706.303894,470.793640 707.741516,477.916107 709.179077,485.038574 
	C708.217896,477.592194 708.699890,469.852478 704.997803,462.175049 
	C703.399536,450.738556 690.263733,421.787842 683.222717,415.461548 
	C689.339783,425.628174 693.938782,435.166565 698.091248,444.942780 
	C700.618408,450.892456 701.741028,457.358368 704.866333,463.671204 
M375.513153,403.063721 
	C378.475037,394.428802 383.965729,387.018951 387.990631,378.618958 
	C382.167633,377.516571 377.703735,378.551453 373.597260,382.246765 
	C359.711517,394.742218 348.648376,409.457214 338.866791,425.248901 
	C337.834320,426.915802 337.340179,428.240173 339.005951,429.513855 
	C335.022705,432.575714 332.795502,431.189545 330.985687,427.384674 
	C330.038513,425.393372 329.116577,422.801727 326.342712,422.646759 
	C321.074280,422.352356 316.150238,428.299194 317.488068,433.552155 
	C318.428040,437.242737 317.781616,439.981934 314.681549,442.268646 
	C313.223907,443.343842 311.832245,444.666504 310.820770,446.155609 
	C308.703796,449.272156 306.286438,449.336578 303.099487,447.889038 
	C300.882202,446.881989 298.162231,445.018707 296.423218,448.895294 
	C294.814972,452.480286 290.839386,455.822723 295.726807,459.828552 
	C298.751862,462.307953 299.714417,465.307037 298.157593,469.107361 
	C297.142426,471.585419 296.760406,474.284119 297.197845,476.965302 
	C297.871063,481.091492 299.944214,481.880615 303.354370,479.504456 
	C307.265015,476.779449 310.048492,473.413422 311.855133,468.803802 
	C316.905609,455.917786 325.851898,446.707092 339.124451,442.071289 
	C344.332489,440.252258 349.637726,438.808167 355.202179,438.778992 
	C359.789368,438.754944 363.072113,435.788177 365.779602,432.997406 
	C367.968842,430.740906 363.365692,429.304535 362.922058,426.905182 
	C362.560333,424.948853 362.041138,423.011444 361.449310,421.110016 
	C360.330322,417.514740 354.755096,415.450195 352.113251,417.740845 
	C350.244263,419.361420 350.248779,421.946503 349.632050,424.154816 
	C348.627289,427.752655 346.714172,429.232910 341.593048,427.361633 
	C345.611389,426.504761 346.835297,424.526703 347.517242,421.928375 
	C349.610626,413.952667 349.690094,414.368286 357.770538,413.879181 
	C362.681335,413.581909 364.235931,416.311188 365.306213,420.113800 
	C371.028107,415.720551 372.903961,409.619263 375.513153,403.063721 
M387.916718,471.649078 
	C379.552368,457.729523 367.075806,451.807465 351.240509,454.097534 
	C330.920502,457.036194 318.248566,477.818176 323.994781,497.780640 
	C328.480713,513.364868 341.946411,523.916565 356.886444,523.554504 
	C383.514679,522.909180 399.575928,496.690979 387.916718,471.649078 
M506.744812,330.138123 
	C504.748749,332.537811 502.003357,333.683472 499.168671,334.696869 
	C495.578583,335.980347 491.965942,337.211700 488.433319,338.639465 
	C486.971985,339.230072 484.956360,339.751434 485.032318,341.789520 
	C485.108856,343.843964 486.185059,345.673309 488.165802,346.540314 
	C489.502625,347.125427 491.013123,347.567932 492.458221,347.605865 
	C497.599518,347.740723 502.747009,347.621521 507.890228,347.710388 
	C510.063293,347.747925 511.692810,346.855896 513.191833,345.421844 
	C516.782959,341.986481 520.051270,338.238617 523.954224,335.091919 
	C526.167969,333.307068 527.079834,330.544373 524.218323,328.393433 
	C521.426025,326.294525 510.068359,327.271454 506.744812,330.138123 
M380.321686,532.974365 
	C375.260284,535.875427 369.436951,536.782776 364.091461,538.889282 
	C365.817932,544.526550 369.733459,548.851135 373.386078,547.751038 
	C379.882935,545.794250 384.088959,547.909058 387.494629,553.130188 
	C387.602295,553.295227 388.110199,553.199158 388.713654,553.247314 
	C390.393158,551.442322 391.143707,548.932617 391.414551,546.580627 
	C391.924408,542.153259 393.434601,538.368835 396.060608,534.767639 
	C400.889832,528.144958 400.432037,526.700134 393.328949,523.429382 
	C389.691437,527.124573 385.490601,530.080688 380.321686,532.974365 
M446.390656,359.698181 
	C454.308044,361.871124 462.214294,364.104553 471.386932,364.653046 
	C467.866150,359.248993 464.303070,354.903656 461.848602,349.870819 
	C461.216034,348.573761 459.840607,348.097870 458.410858,348.634338 
	C453.366943,350.526855 448.924683,353.363312 445.300262,357.376251 
	C444.656189,358.089325 444.961121,358.919708 446.390656,359.698181 
M447.649109,388.677979 
	C444.838440,388.180176 442.016052,385.988464 439.220795,388.680847 
	C437.067352,390.755005 434.790619,392.729706 432.851654,394.991241 
	C429.906769,398.426208 431.097107,401.091797 435.701141,401.772186 
	C439.985291,402.405273 443.887939,400.804230 447.856079,399.635315 
	C449.828949,399.054108 451.864960,398.284058 451.562561,395.711334 
	C451.260986,393.145874 452.452118,389.723083 447.649109,388.677979 
M420.343781,362.973236 
	C424.925690,363.846802 429.390472,365.438019 434.160400,365.166290 
	C421.490082,361.580750 408.940002,357.284088 395.426941,358.719604 
	C403.449554,360.101379 411.472198,361.483124 420.343781,362.973236 
M418.233154,381.818665 
	C414.701324,386.108154 412.474823,391.092041 410.390991,396.224030 
	C416.286530,393.271149 417.796844,386.399933 423.684387,383.562561 
	C421.790314,381.757263 420.429749,381.325226 418.233154,381.818665 
M559.027710,340.539459 
	C562.843384,339.595642 567.064087,340.313507 571.378845,337.778290 
	C568.017029,336.821228 565.510376,336.014618 562.956360,335.407104 
	C560.467712,334.815155 558.946838,336.483673 557.526733,338.133209 
	C556.509338,339.315002 556.652100,340.219238 559.027710,340.539459 
M384.846924,518.011719 
	C382.587646,518.796021 381.712311,520.342041 382.609100,522.583557 
	C383.125275,523.873718 384.250732,524.646179 385.723145,524.494263 
	C387.176178,524.344299 388.177979,523.394836 388.470367,522.049072 
	C388.983002,519.689636 387.825958,518.322205 384.846924,518.011719 
M535.132202,335.258972 
	C537.968140,332.378601 540.923889,329.584167 542.772034,324.552185 
	C537.797729,328.373383 534.453552,332.071808 531.832275,336.610962 
	C533.479004,337.331146 533.987732,336.276581 535.132202,335.258972 
M386.098480,351.839233 
	C393.723297,351.257843 401.290588,352.381958 408.928864,351.850342 
	C400.078705,351.850342 391.228546,351.850342 382.365051,351.848236 
	C383.347656,351.848236 384.330231,351.848236 386.098480,351.839233 
M364.780273,446.465881 
	C364.055511,448.255859 364.356964,449.725708 366.282562,450.442688 
	C367.645355,450.950195 368.858978,450.437439 369.782135,449.346039 
	C370.642365,448.328888 370.640564,447.206543 369.787811,446.227875 
	C368.385284,444.618286 366.813446,444.318390 364.780273,446.465881 
M337.502625,523.530029 
	C335.149048,524.268616 333.375366,525.459717 335.302765,528.071899 
	C336.444427,529.619202 338.227478,529.660950 339.577271,528.177246 
	C341.579773,525.976074 340.111298,524.679321 337.502625,523.530029 
M312.370117,488.648773 
	C312.628967,491.648682 314.297852,492.370392 316.808990,491.150482 
	C318.122345,490.512421 318.836365,489.161346 317.737091,487.843811 
	C316.061096,485.834930 314.195831,485.400696 312.370117,488.648773 
M402.153320,487.384369 
	C400.203613,485.685852 398.452576,485.834015 397.459137,488.281708 
	C396.800873,489.903595 397.620789,491.383575 399.390259,491.633087 
	C402.068573,492.010712 402.963196,490.496429 402.153320,487.384369 
M478.801666,329.871307 
	C479.634369,329.519501 480.880524,329.988586 481.293762,328.476318 
	C479.023315,327.954285 477.057861,329.289886 474.944092,329.363800 
	C472.864471,329.436493 470.935150,330.478210 468.745453,330.121887 
	C470.106262,330.709595 471.421356,330.971130 472.709198,330.873413 
	C474.516937,330.736237 476.304443,330.331970 478.801666,329.871307 
z"/>
<path fill="#000000" opacity="1.000000" stroke="none" 
	d="
M339.953522,649.714783 
	C337.645630,653.782959 334.684052,656.778137 330.721863,658.343384 
	C326.858765,659.869568 326.512787,662.197144 327.598114,665.740784 
	C329.385559,671.576782 330.837036,677.515808 332.688293,684.366760 
	C327.038330,684.366760 322.137909,684.401550 317.238403,684.349609 
	C315.283356,684.328918 314.948639,682.811768 314.628326,681.264404 
	C313.650757,676.541748 312.360229,671.868652 311.665131,667.107178 
	C311.021454,662.697571 309.149414,661.112000 304.490051,661.184448 
	C288.944214,661.426270 288.941162,661.229797 284.633759,675.332642 
	C281.864532,684.399353 281.864471,684.413879 272.324310,684.368103 
	C270.521393,684.359436 268.658020,684.714294 266.837280,683.742554 
	C266.020721,681.770386 266.855469,679.913574 267.401428,678.043640 
	C272.999420,658.870056 278.664276,639.715637 284.151489,620.510437 
	C285.121796,617.114319 286.657867,615.570862 290.387878,615.633484 
	C302.884369,615.843323 315.387360,615.649841 327.884918,615.821899 
	C332.728210,615.888489 337.613922,616.446045 341.296875,620.216797 
	C344.398346,623.392273 345.727264,627.312195 345.085510,631.663452 
	C344.186218,637.761169 342.942688,643.802673 339.953522,649.714783 
M312.351318,647.736145 
	C322.213196,647.683350 325.479828,645.422058 327.270081,637.408875 
	C328.384247,632.421875 326.398529,629.575256 321.279388,629.419434 
	C314.786621,629.221802 308.284027,629.355408 301.785767,629.325012 
	C300.013702,629.316711 298.305695,629.580933 297.745178,631.518738 
	C296.279755,636.585083 294.300232,641.539368 293.785370,647.735107 
	C299.861237,647.735107 305.625366,647.735107 312.351318,647.736145 
z"/>
<path fill="#000000" opacity="1.000000" stroke="none" 
	d="
M485.843201,620.212280 
	C490.663239,625.947021 490.321045,632.321472 488.805359,638.528625 
	C486.599182,647.563538 484.064270,656.545044 481.123962,665.367432 
	C476.882050,678.095215 468.225525,684.159363 454.863159,684.329102 
	C446.374664,684.436890 437.882996,684.443420 429.394287,684.352478 
	C416.565674,684.214966 410.199646,676.604004 413.090790,664.160095 
	C415.420319,654.133484 418.235931,644.185913 421.463562,634.410583 
	C425.337158,622.678894 434.966522,616.023926 447.684662,615.731262 
	C456.502319,615.528381 465.328674,615.649170 474.150574,615.706909 
	C478.440063,615.734924 482.346649,616.977051 485.843201,620.212280 
M466.713104,658.202026 
	C468.609924,651.148071 470.671082,644.132935 472.348297,637.027161 
	C473.554535,631.916931 471.492584,629.461975 466.193665,629.343750 
	C460.210907,629.210205 454.221771,629.239929 448.237579,629.335632 
	C443.237518,629.415588 439.656036,631.833069 437.917206,636.548950 
	C434.755127,645.124756 431.993011,653.835388 430.122345,662.792725 
	C429.075775,667.804260 431.119537,670.437683 436.189514,670.627869 
	C440.672943,670.796143 445.167297,670.682373 449.656830,670.677185 
	C460.648163,670.664551 462.421173,669.430542 466.713104,658.202026 
z"/>
<path fill="#000000" opacity="1.000000" stroke="none" 
	d="
M258.955414,684.060913 
	C257.331299,684.347656 256.008789,684.484985 254.690414,684.452698 
	C244.154160,684.194458 244.080841,684.201782 241.683487,673.933899 
	C241.104065,671.452209 239.858688,670.737854 237.499603,670.770874 
	C228.837036,670.892273 220.172363,670.945190 211.509171,670.898010 
	C208.583939,670.882080 206.347885,671.882874 204.682465,674.260803 
	C204.013901,675.215332 203.298019,676.137756 202.581100,677.057251 
	C196.585007,684.747131 189.982544,686.673889 180.049271,683.616516 
	C179.842667,681.738159 181.180710,680.567017 182.149475,679.273987 
	C196.532654,660.078003 210.920898,640.885620 225.367920,621.737732 
	C227.035736,619.527222 228.250778,616.255188 231.271561,615.990906 
	C236.218781,615.557983 241.239746,615.860413 246.223709,616.027832 
	C247.517883,616.071289 248.024002,617.363770 248.239532,618.577576 
	C252.017059,639.850952 255.795166,661.124329 259.544434,682.402771 
	C259.623047,682.848816 259.361694,683.354797 258.955414,684.060913 
M237.875870,652.092773 
	C236.908493,646.653687 236.389267,641.098083 233.821701,635.012573 
	C227.684998,642.090637 222.908737,649.025085 217.136963,657.259888 
	C223.933212,657.259888 229.331192,657.068909 234.707825,657.325439 
	C238.443863,657.503662 239.117142,655.989502 237.875870,652.092773 
z"/>
<path fill="#000000" opacity="1.000000" stroke="none" 
	d="
M773.167480,665.290527 
	C777.466736,650.019104 781.690186,635.144775 785.752808,620.226562 
	C786.642151,616.960876 788.303955,615.656738 791.740845,615.685364 
	C807.553650,615.817261 823.368774,615.821472 839.181702,615.698303 
	C843.527649,615.664429 844.720520,616.963989 843.461487,621.346191 
	C840.932129,630.149658 841.140625,630.209961 832.266541,630.205994 
	C824.775757,630.202637 817.284912,630.189026 809.794128,630.196777 
	C800.274109,630.206604 799.356445,631.140198 799.075195,641.056580 
	C800.694580,642.245605 802.586365,641.763672 804.363647,641.776184 
	C812.852844,641.836060 821.342773,641.789429 829.831970,641.851440 
	C831.406372,641.862915 833.295166,641.320496 834.261353,643.263123 
	C836.361877,647.486572 830.375610,657.157959 825.608887,657.168701 
	C816.620239,657.189026 807.631348,657.108643 798.642578,657.100647 
	C793.897949,657.096375 789.025146,663.638306 790.454468,668.060974 
	C791.167908,670.268555 793.107300,669.743286 794.659790,669.753540 
	C804.647156,669.819397 814.635010,669.796143 824.622742,669.817322 
	C830.942200,669.830750 831.097107,670.037842 829.463135,675.917908 
	C826.920471,685.067871 826.920410,685.051697 817.369263,685.044067 
	C802.720703,685.032349 788.072083,685.062378 773.423523,685.039734 
	C767.653015,685.030823 767.374695,684.581299 769.059448,679.057190 
	C770.417175,674.605408 771.711426,670.134277 773.167480,665.290527 
M790.188904,629.389832 
	C791.818359,630.043518 793.702332,630.219971 795.020874,629.298035 
	C800.252319,625.640320 806.135742,626.776123 811.838318,626.685547 
	C818.808716,626.574829 825.787048,626.499817 832.752808,626.710449 
	C837.435913,626.851990 839.440552,624.843628 839.322083,620.247742 
	C837.780701,619.037415 836.072205,619.303345 834.463867,619.299927 
	C821.183472,619.271667 807.902893,619.239746 794.622681,619.297424 
	C788.786011,619.322815 786.684509,623.415283 790.188904,629.389832 
z"/>
<path fill="#000000" opacity="1.000000" stroke="none" 
	d="
M659.854126,657.318237 
	C656.239502,659.955933 656.140991,663.869873 655.587402,667.330933 
	C655.095093,670.408813 658.116577,669.756042 659.933411,669.770386 
	C670.090881,669.850708 680.249329,669.805359 690.407349,669.834778 
	C696.206970,669.851624 696.538330,670.258484 694.715149,675.893799 
	C691.561462,685.641785 693.696655,684.990784 682.657043,685.018860 
	C667.836426,685.056519 653.015747,685.021912 638.195068,685.010559 
	C632.797668,685.006470 632.469788,684.515808 633.984680,679.163208 
	C639.418518,659.963989 644.954224,640.792297 650.167175,621.533203 
	C651.315369,617.291199 653.096069,615.563110 657.655457,615.635620 
	C673.304932,615.884766 688.960938,615.704773 704.614380,615.732605 
	C710.152466,615.742432 710.418884,616.163635 708.819458,621.512634 
	C708.390259,622.947754 707.752136,624.346252 707.524170,625.810608 
	C706.974121,629.342773 704.860046,630.319763 701.538696,630.280640 
	C691.382019,630.160950 681.223022,630.218506 671.065002,630.244019 
	C666.398315,630.255676 662.310181,635.519104 663.471252,639.922852 
	C664.078674,642.226501 665.999390,641.748596 667.556335,641.761292 
	C676.714783,641.835999 685.876587,641.970825 695.031616,641.794128 
	C699.473877,641.708435 700.622070,643.148926 699.264587,647.432312 
	C695.721558,658.612488 697.795227,657.078857 686.231018,657.166382 
	C677.573914,657.231934 668.916077,657.203918 659.854126,657.318237 
M699.003845,626.638977 
	C703.787231,626.983398 704.985779,624.211731 704.873596,620.258972 
	C704.407227,619.928650 704.143005,619.577820 703.876587,619.576172 
	C688.387512,619.479736 672.898254,619.409363 657.409058,619.345032 
	C655.184265,619.335754 653.953918,620.731506 653.664062,622.675598 
	C653.282471,625.235107 651.512024,627.691589 652.862549,630.398804 
	C653.044556,630.763550 653.685852,631.103760 654.116577,631.106506 
	C656.751160,631.123169 659.800415,631.696594 661.555908,629.307556 
	C663.485901,626.680908 665.926880,626.696838 668.620117,626.700500 
	C678.450623,626.713745 688.281189,626.682007 699.003845,626.638977 
z"/>
<path fill="#000000" opacity="1.000000" stroke="none" 
	d="
M599.911377,654.868164 
	C593.964661,661.133728 586.594543,662.797974 578.753967,662.967590 
	C571.432983,663.126038 564.103943,663.114807 556.782715,662.966614 
	C553.446655,662.899109 551.520630,663.969666 550.745483,667.407410 
	C549.796387,671.617065 548.229431,675.688171 547.295654,679.900391 
	C546.396301,683.957336 544.062256,685.441589 540.135010,684.955322 
	C539.310120,684.853149 538.477295,684.798889 537.646423,684.763062 
	C528.014832,684.347839 528.189026,684.401489 530.990234,674.919189 
	C536.311646,656.905945 541.506775,638.853699 546.525391,620.754150 
	C547.542480,617.086304 549.139160,615.588257 553.044128,615.652588 
	C566.025574,615.866577 579.013672,615.644714 591.996521,615.805908 
	C604.817932,615.965027 610.132324,622.715759 607.640381,635.263733 
	C606.272949,642.149353 604.593872,648.906250 599.911377,654.868164 
M569.807434,649.460144 
	C572.126526,649.370422 574.455322,649.385376 576.762939,649.171570 
	C584.272766,648.475830 587.982239,645.066223 589.512878,637.593262 
	C590.561584,632.472839 589.009705,630.375916 583.807312,630.235046 
	C578.994934,630.104736 574.143677,630.534607 569.369995,630.081055 
	C563.640320,629.536560 561.205688,631.794128 559.879089,637.364258 
	C556.564392,651.282471 555.480835,648.360474 569.807434,649.460144 
M590.812256,628.289734 
	C591.275696,628.763794 591.876831,629.163513 592.179626,629.724365 
	C593.776367,632.681702 596.076111,633.642883 599.244446,632.415771 
	C601.394714,631.583008 603.888367,631.114807 603.902710,628.028320 
	C603.918152,624.685242 602.355103,622.328430 599.352173,620.928528 
	C597.225403,619.937073 595.005737,619.300903 592.627075,619.302002 
	C580.158569,619.307617 567.689941,619.280273 555.221558,619.316956 
	C552.870300,619.323853 550.221680,619.286743 550.409058,622.778503 
	C550.573364,625.839111 552.274414,626.993469 555.398132,626.875000 
	C561.705444,626.635742 568.030457,626.532715 574.337646,626.722534 
	C579.605042,626.880981 584.991028,625.765442 590.812256,628.289734 
z"/>
<path fill="#000000" opacity="1.000000" stroke="none" 
	d="
M368.855865,641.775024 
	C366.787537,648.852722 364.730438,655.532104 362.974396,662.289612 
	C361.528778,667.852539 363.632385,670.551636 369.414520,670.627808 
	C378.739136,670.750732 388.066528,670.650269 397.392578,670.688843 
	C399.190979,670.696289 401.050018,670.326294 403.096344,671.352600 
	C403.274567,675.480713 401.635376,679.270325 400.173523,683.067688 
	C399.513550,684.782166 397.830078,684.624146 396.310425,684.612427 
	C384.987823,684.525208 373.664459,684.504761 362.342621,684.363403 
	C350.032288,684.209717 343.718262,677.098328 345.903839,664.960815 
	C347.758057,654.663391 350.475739,644.517212 353.979431,634.614136 
	C358.203308,622.675293 367.147308,616.650513 379.248993,615.946960 
	C391.198212,615.252380 403.218475,615.772156 415.207520,615.794006 
	C415.826630,615.795105 416.445190,616.122986 417.208923,616.339905 
	C417.688934,620.424561 415.970825,623.925232 414.752014,627.457092 
	C414.040039,629.520264 411.811188,629.311157 409.976776,629.313904 
	C401.816345,629.326233 393.655914,629.304810 385.495514,629.325317 
	C374.655945,629.352600 372.499268,630.944824 368.855865,641.775024 
z"/>
<path fill="#000000" opacity="1.000000" stroke="none" 
	d="
M730.087891,685.018677 
	C725.946777,684.808777 722.293762,684.580078 718.638367,684.401550 
	C708.150391,683.889343 701.738464,676.170837 704.053711,665.792053 
	C706.403992,655.256348 709.423645,644.855042 712.511719,634.502686 
	C716.097839,622.480835 724.878845,616.477051 736.985779,615.958435 
	C749.781982,615.410339 762.618652,615.802673 775.437683,615.816162 
	C776.067078,615.816833 776.696228,616.123291 777.712952,616.388367 
	C777.751160,620.662598 776.149658,624.502380 774.764465,628.300598 
	C773.947327,630.541199 771.447632,630.173279 769.483765,630.181458 
	C759.827026,630.221558 750.164307,630.409119 740.515381,630.135010 
	C734.768555,629.971802 731.329834,632.580444 729.551697,637.662476 
	C726.750183,645.669800 724.114563,653.742920 722.679199,662.133545 
	C721.812988,667.196899 723.889832,669.653320 729.156921,669.708374 
	C738.313416,669.804199 747.471558,669.736084 756.628845,669.773010 
	C758.596191,669.780945 760.626099,669.453491 763.031616,670.712585 
	C762.454895,674.844910 761.165710,678.907227 759.674438,682.886780 
	C758.809021,685.196350 756.554565,685.089539 754.550537,685.089355 
	C746.558655,685.088623 738.566711,685.048401 730.087891,685.018677 
M731.401917,628.679077 
	C734.237061,627.057312 737.314148,626.646851 740.536011,626.643494 
	C749.338623,626.634399 758.141724,626.561218 766.943359,626.428345 
	C771.109070,626.365540 773.521973,624.568848 772.706787,619.317932 
	C759.571411,619.646667 746.490906,618.436890 733.426819,620.005432 
	C731.316589,620.258789 729.116699,620.821106 727.250549,621.798645 
	C724.596741,623.189026 720.271606,624.624268 721.926941,628.295471 
	C723.594666,631.994263 727.574402,630.573730 731.401917,628.679077 
z"/>
<path fill="#000000" opacity="1.000000" stroke="none" 
	d="
M613.452881,648.602173 
	C616.196594,639.112549 618.989197,630.053711 621.377075,620.889343 
	C622.330200,617.231201 623.929504,615.683533 627.854309,615.651917 
	C640.775391,615.547852 640.879639,615.442322 637.420654,627.755310 
	C632.476318,645.355652 627.298279,662.890381 622.370972,680.495361 
	C621.456360,683.763489 619.828613,685.041809 616.419006,685.124146 
	C602.683472,685.455566 602.668396,685.540894 606.457336,672.429993 
	C608.718018,664.607239 611.043213,656.803101 613.452881,648.602173 
M627.952759,619.371826 
	C624.041321,620.658386 623.494995,624.065552 624.705994,626.898499 
	C626.050049,630.042847 629.342590,628.450195 631.715454,627.642883 
	C634.469849,626.705811 635.354126,623.880798 634.904907,621.577515 
	C634.261047,618.276245 630.973083,619.677979 627.952759,619.371826 
z"/>
<path fill="#000000" opacity="1.000000" stroke="none" 
	d="
M529.995300,644.755249 
	C526.066956,660.161438 527.798950,656.887390 514.925476,657.224426 
	C508.959900,657.380615 502.985931,657.187012 497.016388,657.232239 
	C493.419128,657.259460 492.170685,655.818359 493.409637,652.292175 
	C497.147156,641.654541 493.787201,642.745911 505.842865,642.677551 
	C512.310181,642.640930 518.778809,642.621277 525.244812,642.724792 
	C526.919189,642.751526 529.019897,642.014221 529.995300,644.755249 
z"/>
<path fill="#000000" opacity="1.000000" stroke="none" 
	d="
M467.421021,729.740723 
	C464.164215,725.258301 463.888245,719.875000 461.077850,715.080444 
	C461.077850,718.876099 461.147766,722.289856 461.050812,725.698792 
	C460.995544,727.642273 461.195740,730.070190 458.246796,730.041992 
	C455.550232,730.016235 455.800842,727.771790 455.782013,725.987854 
	C455.725861,720.661743 455.788422,715.334351 455.740509,710.008118 
	C455.719757,707.702393 456.393524,706.095764 459.004761,705.953064 
	C461.407196,705.821716 463.688263,705.720825 464.622101,708.732849 
	C465.788422,712.494934 467.143066,716.198547 468.934235,721.443970 
	C470.663788,716.472656 471.994965,712.987610 473.078339,709.427124 
	C473.983978,706.450684 475.932159,705.551208 478.776794,705.970825 
	C481.649078,706.394592 481.235107,708.652588 481.306274,710.600403 
	C481.494568,715.752380 481.695862,720.904602 481.797943,726.058594 
	C481.834381,727.898804 481.807068,730.025146 479.156219,729.971313 
	C476.848755,729.924438 476.771179,728.005859 476.745239,726.319336 
	C476.692200,722.871582 476.729340,719.422485 475.895203,715.796875 
	C474.652832,719.296265 473.453888,722.811951 472.151428,726.288818 
	C471.400818,728.292419 470.810425,730.630005 467.421021,729.740723 
z"/>
<path fill="#000000" opacity="1.000000" stroke="none" 
	d="
M521.721558,726.705505 
	C521.702393,721.089355 521.671265,715.941467 521.713074,710.794189 
	C521.728760,708.864197 521.284912,706.594482 524.069275,706.031067 
	C526.410767,705.557373 528.337402,706.203857 529.623596,708.336121 
	C531.924377,712.150513 534.226624,715.963989 537.580139,719.655457 
	C537.580139,716.318909 537.639771,712.980835 537.558167,709.646301 
	C537.507812,707.589905 537.784790,705.905396 540.353699,705.954834 
	C542.670166,705.999390 542.915955,707.723022 542.919128,709.452576 
	C542.929138,714.928833 542.910522,720.405884 542.821472,725.881226 
	C542.792053,727.692261 542.813965,729.728088 540.349854,730.121216 
	C538.094238,730.481079 536.011536,730.225037 534.817627,727.868713 
	C532.601196,723.494507 530.412598,719.102539 527.061401,714.509766 
	C527.061401,719.111572 527.097595,722.886169 527.043884,726.659485 
	C527.022156,728.187866 526.792786,729.753662 524.843201,730.025696 
	C522.719421,730.322083 521.789185,729.196960 521.721558,726.705505 
z"/>
<path fill="#000000" opacity="1.000000" stroke="none" 
	d="
M683.069214,705.674683 
	C691.466064,706.307190 695.458130,710.681091 695.341248,718.649048 
	C695.244019,725.281189 689.937683,730.732422 683.400940,730.915344 
	C677.052856,731.093018 671.591736,725.923096 670.845947,719.029602 
	C670.105164,712.183655 674.804749,706.864990 683.069214,705.674683 
M681.246582,725.451660 
	C686.074585,726.538574 688.971313,724.340210 690.053040,719.824402 
	C691.023254,715.774292 689.283081,712.662354 685.556091,710.935974 
	C682.144470,709.355652 679.294678,710.701416 677.485168,713.679688 
	C675.100098,717.605225 675.940308,721.260132 679.312073,724.331299 
	C679.672791,724.659912 680.136597,724.875305 681.246582,725.451660 
z"/>
<path fill="#000000" opacity="1.000000" stroke="none" 
	d="
M719.695557,722.807739 
	C720.717224,725.191101 722.573364,726.898071 722.478210,729.678833 
	C714.687805,732.412170 716.589661,722.355957 711.509949,721.596313 
	C709.318359,723.068054 710.575317,725.474670 710.168823,727.428833 
	C709.822815,729.092346 709.199341,730.255066 707.291748,730.132935 
	C705.656921,730.028320 704.918396,728.967468 704.903503,727.488281 
	C704.840027,721.183228 704.816528,714.877136 704.877075,708.572388 
	C704.884094,707.840820 705.317200,706.893311 705.872314,706.423523 
	C709.025757,703.755371 720.286438,706.247253 722.083557,709.989197 
	C723.523193,712.986633 723.187134,715.828125 720.831970,718.248657 
	C719.620850,719.493286 718.426270,720.624634 719.695557,722.807739 
M716.044006,711.375977 
	C713.945801,710.142578 711.675476,709.185242 710.467957,712.204224 
	C709.831360,713.795776 709.883545,716.181946 712.407104,716.336792 
	C715.151855,716.505066 717.286499,715.427490 716.044006,711.375977 
z"/>
<path fill="#000000" opacity="1.000000" stroke="none" 
	d="
M396.555511,709.581909 
	C401.166260,705.109070 406.231628,704.550964 411.509338,706.937622 
	C416.344635,709.124146 417.713837,713.656250 417.791199,718.496338 
	C417.873260,723.629761 414.764160,728.252563 410.221710,729.734192 
	C405.379700,731.313599 400.696777,730.944824 396.824646,727.120239 
	C393.398285,723.736084 392.274841,717.864929 394.224884,713.243408 
	C394.732635,712.040039 395.595123,710.986267 396.555511,709.581909 
M409.121704,724.791016 
	C410.408051,723.964539 411.416412,722.877747 411.978119,721.453979 
	C413.484344,717.635986 412.811127,714.258179 409.553955,711.686157 
	C406.863403,709.561584 403.957611,709.687622 401.405121,711.930359 
	C398.547150,714.441650 397.381714,717.614014 399.061829,721.271545 
	C400.952393,725.387390 404.180939,726.635376 409.121704,724.791016 
z"/>
<path fill="#000000" opacity="1.000000" stroke="none" 
	d="
M442.877350,719.161865 
	C441.179443,721.391235 442.812469,722.827148 443.526184,724.415527 
	C444.254364,726.036133 445.798798,727.333557 445.485931,729.624634 
	C437.317535,732.636658 439.460510,721.765137 434.085693,721.024841 
	C432.385925,722.885315 433.378540,725.184509 432.982880,727.212585 
	C432.672791,728.802246 432.222076,730.146484 430.256348,730.124390 
	C428.268219,730.102112 427.750763,728.804871 427.744995,727.135681 
	C427.724396,721.146179 427.715851,715.156677 427.727081,709.167175 
	C427.728943,708.169556 427.846832,707.184875 428.723877,706.473633 
	C430.653107,704.909180 440.874847,705.803528 443.122406,707.750000 
	C446.136963,710.360718 446.131744,714.593079 442.877350,719.161865 
M433.318878,714.801331 
	C434.866486,717.600525 436.905457,716.404785 438.787872,715.361023 
	C439.815247,714.791443 440.645630,713.758118 439.998047,712.474365 
	C439.165283,710.823425 437.595276,710.355469 435.834106,710.358582 
	C433.198547,710.363159 433.010223,712.091736 433.318878,714.801331 
z"/>
<path fill="#000000" opacity="1.000000" stroke="none" 
	d="
M358.943817,729.756104 
	C355.335114,731.030029 353.892212,729.091919 352.581696,726.449036 
	C351.566650,724.401978 351.230072,721.437134 347.841095,721.486389 
	C345.826141,723.283875 347.376160,725.648621 346.753632,727.630493 
	C346.325500,728.993469 345.884888,730.172729 344.181915,730.106689 
	C342.524536,730.042358 341.829529,729.004089 341.820984,727.496216 
	C341.785248,721.192932 341.760010,714.888977 341.836304,708.586548 
	C341.844940,707.874146 342.350433,706.964661 342.915710,706.498535 
	C344.979340,704.796570 354.835358,705.914429 357.232117,708.014465 
	C360.090851,710.519470 360.362183,714.749023 357.336700,718.772156 
	C355.803009,720.811584 356.159668,722.255188 357.156158,724.144958 
	C358.049774,725.839783 359.797302,727.252319 358.943817,729.756104 
M349.559326,716.611389 
	C351.766022,716.443726 354.162354,716.192261 354.408295,713.458679 
	C354.578552,711.566284 352.902100,710.614563 351.130280,710.401978 
	C349.493805,710.205627 347.680603,710.031250 346.964386,712.087036 
	C346.270508,714.078796 345.838501,716.081665 349.559326,716.611389 
z"/>
<path fill="#000000" opacity="1.000000" stroke="none" 
	d="
M507.241516,712.865601 
	C509.305908,718.472351 511.252655,723.710388 513.263367,729.120544 
	C510.486755,730.622009 508.743317,730.564209 507.063293,728.057922 
	C504.274170,723.897156 498.854156,724.002075 495.801605,728.065552 
	C494.121979,730.301453 494.121979,730.301453 490.137360,729.281067 
	C492.401825,721.847961 495.480438,714.758118 498.834198,707.811401 
	C500.195374,704.991943 503.453491,705.184143 505.146545,707.947571 
	C506.001892,709.343811 506.476898,710.973022 507.241516,712.865601 
M500.075928,719.874756 
	C506.414001,719.864807 502.737244,716.732544 502.044586,713.905151 
	C500.384674,715.849121 499.411804,717.426575 500.075928,719.874756 
z"/>
<path fill="#000000" opacity="1.000000" stroke="none" 
	d="
M637.153625,709.567749 
	C635.749146,712.192139 634.024658,711.953857 631.980957,710.897583 
	C630.204285,709.979187 628.033752,709.839783 627.282410,711.952576 
	C626.378174,714.495239 629.060181,714.592529 630.557434,715.378174 
	C630.844360,715.528625 631.193481,715.562927 631.515747,715.643433 
	C635.197510,716.563660 638.056885,718.406982 638.168396,722.594727 
	C638.269104,726.377747 636.030151,728.773315 632.696960,730.149292 
	C628.786255,731.763611 625.208557,730.911987 621.973145,728.343750 
	C620.855225,727.456299 620.795959,726.390076 621.724609,725.325439 
	C622.612488,724.307495 623.568848,723.273865 625.111694,723.977295 
	C625.859009,724.318115 626.463196,724.992188 627.221008,725.286865 
	C629.076904,726.008545 631.119934,726.058350 631.981262,724.036621 
	C633.101685,721.407104 630.538757,720.829651 628.975342,720.583557 
	C624.445740,719.870361 621.522217,718.023010 621.623962,712.928528 
	C621.706665,708.789978 623.803223,706.274597 627.705566,705.606201 
	C631.451233,704.964539 635.372437,704.641907 637.153625,709.567749 
z"/>
<path fill="#000000" opacity="1.000000" stroke="none" 
	d="
M747.926758,717.144531 
	C747.878235,721.439148 744.850098,719.930847 742.841858,720.268799 
	C741.000305,720.578674 738.445496,719.694336 738.288330,722.748901 
	C738.113098,726.154724 740.789490,725.575806 742.876038,725.681213 
	C743.872375,725.731628 744.872803,725.698975 745.869934,725.739502 
	C747.262390,725.796021 748.674683,726.013367 748.780396,727.758850 
	C748.902588,729.778381 747.445923,730.187805 745.809204,730.257263 
	C745.642944,730.264282 745.476013,730.263123 745.310486,730.277893 
	C732.734619,731.395264 732.739624,731.395325 732.626953,718.690430 
	C732.601868,715.863281 732.709106,713.018921 732.433228,710.214111 
	C732.075256,706.574158 733.728394,705.487366 737.075806,705.706238 
	C740.059265,705.901367 743.062744,705.766968 746.055115,705.855286 
	C747.648071,705.902283 748.516296,706.827942 748.399353,708.437378 
	C748.290466,709.936646 747.155640,710.237854 745.904297,710.277039 
	C743.910156,710.339539 741.910278,710.319092 739.922974,710.468811 
	C738.374939,710.585388 737.533447,711.541870 737.548523,713.125854 
	C737.564087,714.757202 738.526855,715.407227 740.052734,715.648010 
	C742.619690,716.052917 745.408936,714.877869 747.926758,717.144531 
z"/>
<path fill="#000000" opacity="1.000000" stroke="none" 
	d="
M330.422852,726.426880 
	C330.769928,727.512146 331.096771,728.533020 330.724518,729.060608 
	C329.710266,730.497986 317.689362,730.872620 316.361572,729.637390 
	C315.384735,728.728699 315.617493,727.500000 315.610229,726.360779 
	C315.575348,720.886230 315.690979,715.406982 315.495178,709.938599 
	C315.384583,706.850342 316.692749,705.734131 319.591827,705.830139 
	C322.077576,705.912415 324.569855,705.793945 327.056000,705.869385 
	C328.681396,705.918640 330.745544,705.785583 330.858185,708.062439 
	C330.981018,710.546021 328.826447,710.169189 327.242920,710.281860 
	C326.086395,710.364075 324.921661,710.332214 323.760529,710.347351 
	C321.856445,710.372070 320.477417,711.042053 320.531464,713.211853 
	C320.580505,715.180664 321.969604,715.621460 323.604614,715.674194 
	C324.599274,715.706238 325.597260,715.672974 326.589478,715.736267 
	C328.348450,715.848450 330.673950,715.427856 330.626434,718.138733 
	C330.584656,720.520020 328.447296,720.135193 326.845978,720.248596 
	C326.350372,720.283752 325.850555,720.253784 325.353363,720.272522 
	C323.353821,720.347961 321.086090,720.133728 321.178528,723.143555 
	C321.260284,725.805725 323.317139,725.612122 325.153534,725.719849 
	C326.799408,725.816406 328.440491,725.995117 330.422852,726.426880 
z"/>
<path fill="#000000" opacity="1.000000" stroke="none" 
	d="
M568.927002,712.047119 
	C565.844910,710.547974 563.133484,709.318115 560.252869,711.671875 
	C557.847595,713.637085 556.980225,716.174011 557.327148,719.196106 
	C557.921875,724.376465 562.084839,726.965332 566.985962,724.854065 
	C569.536194,723.755554 571.369202,723.571228 572.732483,726.281006 
	C568.481873,732.382202 559.367981,732.404114 554.552246,726.363953 
	C551.010803,721.922058 550.825806,715.329468 554.107910,710.532776 
	C557.140259,706.101135 562.810059,704.218628 568.272522,705.927673 
	C570.027161,706.476624 571.923645,707.253784 572.176331,709.322266 
	C572.397827,711.135742 570.873657,711.800354 568.927002,712.047119 
z"/>
<path fill="#000000" opacity="1.000000" stroke="none" 
	d="
M288.723572,716.031982 
	C288.722961,715.208679 288.721771,714.875549 288.722504,714.542480 
	C288.742432,705.448120 289.331848,704.916199 298.347656,705.855835 
	C303.133759,706.354675 306.131531,709.186035 306.237396,713.307739 
	C306.343323,717.432190 303.592957,720.731812 298.769287,721.060425 
	C295.011871,721.316284 293.801880,722.782471 294.052185,726.302124 
	C294.182434,728.133911 293.999756,730.251160 291.325745,730.113586 
	C288.698700,729.978271 288.869720,727.810730 288.815979,726.014038 
	C288.721405,722.852051 288.748016,719.686401 288.723572,716.031982 
M296.459717,710.375610 
	C293.563263,710.792847 293.917755,712.906555 294.244873,714.851379 
	C294.521271,716.494629 295.888855,716.689453 297.272125,716.608643 
	C298.856476,716.515930 300.302704,715.937683 300.564301,714.249878 
	C300.941681,711.815247 299.442535,710.701904 296.459717,710.375610 
z"/>
<path fill="#000000" opacity="1.000000" stroke="none" 
	d="
M584.295166,729.976318 
	C581.377014,722.585632 583.092285,715.120422 582.696777,707.770508 
	C582.625305,706.441528 583.957642,705.890320 585.208496,705.869446 
	C588.525330,705.814148 591.844055,705.791748 595.160706,705.840454 
	C596.576416,705.861206 597.860413,706.318054 597.858398,708.070312 
	C597.856384,709.805054 596.642273,710.246216 595.179688,710.296692 
	C593.357178,710.359741 591.525574,710.316589 589.713989,710.488953 
	C588.141052,710.638611 587.469421,711.740723 587.457520,713.260742 
	C587.444275,714.955383 588.460083,715.600586 589.989929,715.652344 
	C591.482056,715.702881 592.975647,715.726135 594.468689,715.732422 
	C596.199158,715.739746 597.376648,716.326843 597.325256,718.303528 
	C597.275818,720.206909 595.903931,720.262878 594.531982,720.300476 
	C593.039734,720.341309 591.543884,720.309753 590.055237,720.401733 
	C588.549561,720.494690 587.539490,721.241089 587.484497,722.863708 
	C587.421448,724.723328 588.461548,725.590393 590.227600,725.660461 
	C591.884949,725.726196 593.546143,725.699463 595.203247,725.769409 
	C596.634644,725.829834 597.903442,726.233704 597.878296,727.995544 
	C597.853943,729.703003 596.641785,730.249207 595.192078,730.251892 
	C591.710327,730.258423 588.228333,730.176392 584.295166,729.976318 
z"/>
<path fill="#000000" opacity="1.000000" stroke="none" 
	d="
M369.702637,722.896545 
	C369.676880,718.080078 369.744232,713.744934 369.594574,709.417358 
	C369.505463,706.841309 370.561615,705.729675 373.084045,705.774902 
	C375.915497,705.825562 378.749084,705.761780 381.580261,705.820801 
	C383.108948,705.852600 384.786682,706.002197 384.874573,708.028870 
	C384.967560,710.172974 383.252686,710.205994 381.728424,710.276489 
	C380.065308,710.353394 378.393402,710.307373 376.737427,710.452759 
	C375.107605,710.595703 374.525909,711.743469 374.499298,713.242310 
	C374.469940,714.899536 375.371704,715.672668 376.959198,715.724243 
	C378.624084,715.778320 380.291534,715.768311 381.954956,715.847656 
	C383.441956,715.918518 384.590302,716.546265 384.624237,718.200012 
	C384.661774,720.029785 383.270416,720.434570 381.883545,720.291992 
	C377.080414,719.798340 374.101929,721.034973 374.760437,726.705627 
	C374.948120,728.322021 374.428925,730.184509 372.054108,730.056458 
	C369.620514,729.925232 369.826965,728.022400 369.736481,726.379578 
	C369.681580,725.382568 369.712189,724.380737 369.702637,722.896545 
z"/>
<path fill="#000000" opacity="1.000000" stroke="none" 
	d="
M678.804688,609.907227 
	C675.408447,605.487000 674.166016,600.476257 671.629089,595.158020 
	C677.784729,593.476379 683.437256,593.824158 689.086548,594.586365 
	C689.726135,594.672668 690.543762,595.554932 690.771118,596.237183 
	C692.219482,600.584167 693.782043,604.918640 694.469177,610.083130 
	C689.035461,610.083130 684.115112,610.083130 678.804688,609.907227 
M685.850098,598.151978 
	C683.165405,598.094421 680.389526,597.353577 677.879395,598.857666 
	C679.813354,607.239807 682.428650,608.686096 689.533813,605.381775 
	C688.862183,602.956726 688.888733,600.246033 685.850098,598.151978 
z"/>
<path fill="#000000" opacity="1.000000" stroke="none" 
	d="
M651.920471,727.586670 
	C651.838623,723.976685 651.837463,720.823242 651.785400,717.670654 
	C651.727966,714.187500 652.921326,709.920776 646.976074,710.088684 
	C646.119934,710.112915 645.683777,709.144775 645.646240,708.246887 
	C645.599182,707.119507 646.124084,706.097412 647.217041,706.065674 
	C652.182617,705.921448 657.153320,705.898743 662.121338,705.937439 
	C663.201111,705.945801 663.907288,706.750305 663.982483,707.904480 
	C664.074097,709.311401 663.308105,710.280701 661.993530,710.232605 
	C656.871155,710.045166 657.204468,713.502319 657.268066,716.931030 
	C657.329651,720.248779 657.272583,723.569397 657.223755,726.888123 
	C657.203796,728.245789 657.052795,729.665710 655.398499,730.015747 
	C653.751343,730.364197 652.437622,729.880432 651.920471,727.586670 
z"/>
<path fill="#000000" opacity="1.000000" stroke="none" 
	d="
M387.170807,480.288513 
	C391.609802,500.411285 379.099487,518.374023 359.113068,519.730835 
	C347.661469,520.508240 337.845947,515.660706 331.441345,505.750244 
	C325.159912,496.030396 323.647675,485.502502 329.078644,474.895630 
	C339.211914,455.105103 365.135834,451.611664 380.440582,467.728546 
	C383.753021,471.216736 385.729370,475.358032 387.170807,480.288513 
M340.286407,499.095795 
	C346.463470,507.208557 356.298737,510.102112 364.503571,506.175293 
	C368.981628,504.032074 372.408081,500.831055 374.762390,496.369049 
	C378.782288,488.750336 375.353088,481.900604 372.505585,475.090088 
	C374.455994,473.156616 379.087860,474.300720 378.032806,470.291565 
	C377.318634,467.577698 374.832031,465.037903 371.952972,465.032654 
	C367.552795,465.024628 370.340820,469.682220 368.628082,471.638153 
	C367.010803,471.935486 365.700653,471.077667 364.291473,470.654022 
	C362.860291,470.223755 361.447052,469.677246 359.984070,469.418762 
	C352.753296,468.141357 352.748413,468.169067 354.166046,461.968597 
	C348.967255,460.268494 344.414154,461.734497 338.184143,467.190033 
	C336.903168,468.311768 334.573029,469.208405 336.145691,471.489136 
	C337.575867,473.563141 339.610199,472.859222 341.521301,471.977722 
	C343.701294,470.972137 345.906921,470.022186 348.101410,469.048065 
	C335.155518,480.411957 335.072937,488.371826 340.286407,499.095795 
M369.445038,506.276611 
	C366.341522,507.835663 363.226135,509.371704 360.139954,510.964294 
	C358.764526,511.674042 357.496857,512.605530 357.984558,514.424133 
	C358.529144,516.454773 360.196350,516.744324 361.948944,516.503967 
	C366.308563,515.905945 370.247223,514.240295 373.696106,511.500946 
	C375.237244,510.276764 376.215576,508.773926 375.005585,506.774567 
	C373.697968,504.613953 371.995178,504.396362 369.445038,506.276611 
z"/>
</svg>